<svg width="66" height="70" viewBox="0 0 66 70" fill="none" xmlns="http://www.w3.org/2000/svg">
<path d="M64.9614 48.6908L64.9627 48.692C65.2229 48.9523 65.2229 49.3743 64.9627 49.6347L61.6551 52.9236L61.655 52.9237C61.5317 53.0463 61.3655 53.1159 61.1917 53.1176C61.0158 53.1154 60.8478 53.0436 60.7244 52.9176L60.7219 52.9151L58.9322 51.115L58.6688 50.85L58.34 51.0276C53.682 53.543 48.4723 54.8629 43.1783 54.8688C40.9717 54.8633 38.7712 54.6324 36.6116 54.1795L36.009 54.0531V54.6688V60.6667V61.1667H36.509H50.5084C53.4527 61.1701 55.8388 63.5563 55.8423 66.5006V68.8333C55.8423 69.2015 55.5438 69.5 55.1756 69.5H1.50895C1.1408 69.5 0.842285 69.2015 0.842285 68.8333V66.5003C0.845912 63.5561 3.23199 61.1701 6.17621 61.1667H20.1756H20.6756V60.6667V47.1349C20.678 46.7636 20.7135 46.3931 20.7815 46.0279L20.854 45.6385L20.4916 45.4788C20.4282 45.4508 20.3702 45.4125 20.32 45.3654C10.3116 35.2733 8.10757 19.8108 14.8982 7.32404L15.0754 6.99825L14.815 6.73415L13.0347 4.92815L13.0347 4.92814L13.0322 4.92567C12.7722 4.66552 12.772 4.24391 13.0317 3.98354C13.0319 3.98336 13.032 3.98318 13.0322 3.983L16.3398 0.694052L16.3399 0.694004C16.4632 0.571345 16.6294 0.50179 16.8033 0.500019C16.9792 0.502297 17.1472 0.574125 17.2705 0.700019L17.2731 0.702634L34.9715 18.4931L35.1439 18.6664L35.3865 18.6368L46.2365 17.3126L46.8563 17.237L46.647 16.6487C46.4797 16.1786 46.3972 15.6826 46.4031 15.1835C46.4307 12.8516 48.3435 10.9835 50.6754 11.011C53.0074 11.0387 54.8755 12.9515 54.8479 15.2834C54.8202 17.6154 52.9075 19.4834 50.5755 19.4559V19.4558H50.5696H50.5574C50.0513 19.452 49.55 19.3557 49.0785 19.1716L48.5249 18.9554L48.4066 19.5378L46.3568 29.6342L46.3036 29.8962L46.4919 30.0859L64.9614 48.6908ZM48.5743 13.2826C48.0446 13.8106 47.7451 14.5264 47.7412 15.2745C47.7331 16.8394 48.9952 18.1143 50.5599 18.1225H50.5625H50.5694C50.5694 18.1225 50.5694 18.1225 50.5695 18.1225C51.3185 18.1226 52.0371 17.8262 52.5681 17.298C53.6775 16.1946 53.6825 14.4006 52.5789 13.2911C51.4755 12.1817 49.6814 12.1767 48.572 13.2803L48.5743 13.2826ZM46.6683 21.4005L46.997 19.7822L45.8258 20.9464L41.9455 24.8034L41.5908 25.1559L41.9434 25.5105L44.5147 28.097L45.1733 28.7595L45.3593 27.844L46.6683 21.4005ZM45.2055 19.6828L46.2389 18.6554L44.7924 18.8318L37.3432 19.7407L36.3281 19.8645L37.0493 20.5896L40.2985 23.8563L40.651 24.2107L41.0055 23.8583L45.2055 19.6828ZM54.009 68.1667H54.509V67.6667V66.5C54.509 64.2908 52.7181 62.5 50.509 62.5H6.17562C3.96646 62.5 2.17562 64.2908 2.17562 66.5V67.6667V68.1667H2.67562H54.009ZM34.6756 58.3333V57.8333H34.1756H22.509H22.009V58.3333V60.6667V61.1667H22.509H34.1756H34.6756V60.6667V58.3333ZM22.009 56V56.5H22.509H34.1756H34.6756V56V47.1333C34.6756 43.9687 31.773 41.5 28.3423 41.5C24.9116 41.5 22.009 43.9687 22.009 47.1333V56ZM36.009 52.29V52.6897L36.3989 52.7777C43.3894 54.3552 50.7114 53.4404 57.0987 50.1912L57.7106 49.8798L57.2265 49.393L16.5351 8.46819L16.0501 7.98041L15.7358 8.59226C9.74804 20.248 11.7798 34.4151 20.8024 43.9181L21.2469 44.3863L21.589 43.8388C23.0391 41.5176 25.598 40.1247 28.3346 40.1666L28.3346 40.1667H28.3423C32.6126 40.1667 36.009 43.3335 36.009 47.1333V52.29ZM60.8492 51.1469L61.2017 51.5013L61.5562 51.149L63.2117 49.504L63.5665 49.1515L63.2139 48.7968L34.543 19.958C34.5291 19.9414 34.51 19.9204 34.4865 19.8996C34.483 19.8966 34.4793 19.8934 34.4754 19.8901L17.1468 2.46378L16.7939 2.10886L16.4394 2.46215L14.7885 4.10715L14.4341 4.46033L14.7875 4.81451L16.4377 6.46816L16.4384 6.46885L59.2053 49.4937L59.2054 49.4937L60.8492 51.1469Z" fill="#212121" stroke="black"/>
<path d="M28.3528 44.3333H28.3423L28.3524 44.8333M28.3528 44.3333L28.352 44.8333C28.3521 44.8333 28.3523 44.8333 28.3524 44.8333M28.3528 44.3333C30.2858 44.3362 31.8505 45.9055 31.8475 47.8386C31.8446 49.7716 30.2753 51.3362 28.3423 51.3333L28.3528 44.3333ZM28.3524 44.8333H28.3423H28.3415C26.6847 44.8308 25.3395 46.1719 25.337 47.8288C25.3345 49.4856 26.6755 50.8307 28.3322 50.8333C28.3323 50.8333 28.3324 50.8333 28.3325 50.8333L28.3423 50.8333H28.343C29.9999 50.8358 31.345 49.4947 31.3475 47.8378C31.35 46.1811 30.0091 44.836 28.3524 44.8333ZM29.5221 49.015L30.3811 48.1605H29.9704C29.9913 48.0563 30.0023 47.9497 30.0028 47.8419C30.0076 46.9214 29.2653 46.1715 28.3449 46.1667V46.1666L28.3397 46.1667C27.9022 46.169 27.4832 46.3431 27.173 46.6516L27.1729 46.6518C26.8607 46.9625 26.684 47.3841 26.6818 47.8247C26.677 48.7452 27.4193 49.4952 28.3397 49.5L28.3404 49.5C28.7831 49.5017 29.2083 49.3271 29.5221 49.015Z" fill="#2196F3" stroke="black"/>
</svg>
